HIERARCHY
ROOT Hips
{
	OFFSET 0.000000 0.000000 0.000000
	CHANNELS 6 Xposition Yposition Zposition Zrotation Xrotation Yrotation
	JOINT Spine
	{
		OFFSET 0.000000 -0.000000 0.070167
		CHANNELS 6 Xposition Yposition Zposition Zrotation Xrotation Yrotation
		JOINT Spine1
		{
			OFFSET 0.000000 -0.000000 0.166666
			CHANNELS 6 Xposition Yposition Zposition Zrotation Xrotation Yrotation
			JOINT Neck
			{
				OFFSET 0.000000 -0.000000 0.183780
				CHANNELS 6 Xposition Yposition Zposition Zrotation Xrotation Yrotation
				JOINT Head
				{
					OFFSET 0.000000 -0.017114 0.132633
					CHANNELS 6 Xposition Yposition Zposition Zrotation Xrotation Yrotation
					End Site
					{
						OFFSET 0.000000 -0.000000 0.171140
					}
				}
			}
			JOINT LeftShoulder
			{
				OFFSET 0.034466 0.004091 0.144174
				CHANNELS 6 Xposition Yposition Zposition Zrotation Xrotation Yrotation
				JOINT LeftArm
				{
					OFFSET 0.121044 0.000000 0.000000
					CHANNELS 6 Xposition Yposition Zposition Zrotation Xrotation Yrotation
					JOINT LeftForeArm
					{
						OFFSET 0.257070 0.000000 0.000000
						CHANNELS 6 Xposition Yposition Zposition Zrotation Xrotation Yrotation
						JOINT LeftHand
						{
							OFFSET 0.224060 0.000000 0.000000
							CHANNELS 6 Xposition Yposition Zposition Zrotation Xrotation Yrotation
							End Site
							{
								OFFSET 0.128355 0.000000 0.000000
							}
						}
					}
				}
			}
			JOINT RightShoulder
			{
				OFFSET -0.033538 0.004091 0.144174
				CHANNELS 6 Xposition Yposition Zposition Zrotation Xrotation Yrotation
				JOINT RightArm
				{
					OFFSET -0.121044 0.000000 0.000000
					CHANNELS 6 Xposition Yposition Zposition Zrotation Xrotation Yrotation
					JOINT RightForeArm
					{
						OFFSET -0.257070 0.000000 0.000000
						CHANNELS 6 Xposition Yposition Zposition Zrotation Xrotation Yrotation
						JOINT RightHand
						{
							OFFSET -0.224060 0.000000 0.000000
							CHANNELS 6 Xposition Yposition Zposition Zrotation Xrotation Yrotation
							End Site
							{
								OFFSET -0.128355 0.000000 0.000000
							}
						}
					}
				}
			}
		}
	}
	JOINT LeftUpLeg
	{
		OFFSET 0.085570 0.000000 0.000000
		CHANNELS 6 Xposition Yposition Zposition Zrotation Xrotation Yrotation
		JOINT LeftLeg
		{
			OFFSET 0.000000 0.000000 -0.385526
			CHANNELS 6 Xposition Yposition Zposition Zrotation Xrotation Yrotation
			JOINT LeftFoot
			{
				OFFSET 0.000000 0.000000 -0.365921
				CHANNELS 6 Xposition Yposition Zposition Zrotation Xrotation Yrotation
				JOINT LeftToeBase
				{
					OFFSET 0.000000 -0.128355 -0.055620
					CHANNELS 6 Xposition Yposition Zposition Zrotation Xrotation Yrotation
					End Site
					{
						OFFSET 0.000000 -0.034228 0.000000
					}
				}
			}
		}
	}
	JOINT RightUpLeg
	{
		OFFSET -0.085570 0.000000 0.000000
		CHANNELS 6 Xposition Yposition Zposition Zrotation Xrotation Yrotation
		JOINT RightLeg
		{
			OFFSET 0.000000 0.000000 -0.385526
			CHANNELS 6 Xposition Yposition Zposition Zrotation Xrotation Yrotation
			JOINT RightFoot
			{
				OFFSET 0.000000 0.000000 -0.365921
				CHANNELS 6 Xposition Yposition Zposition Zrotation Xrotation Yrotation
				JOINT RightToeBase
				{
					OFFSET 0.000000 -0.128355 -0.055620
					CHANNELS 6 Xposition Yposition Zposition Zrotation Xrotation Yrotation
					End Site
					{
						OFFSET 0.000000 -0.034228 0.000000
					}
				}
			}
		}
	}
}
MOTION
Frames: 6
Frame Time: 0.016667
0.169633 0.013705 0.811130 59.948147 -4.513714 -1.769291 0.000000 -0.000000 0.070167 18.796436 -0.115215 -3.100809 -0.000000 -0.000000 0.166666 4.956179 12.376967 12.018991 -0.000000 -0.000000 0.183780 -5.734752 8.666986 17.754911 0.000000 -0.017114 0.132633 -6.681108 18.312678 -10.720370 0.034466 0.004091 0.144174 2.456757 6.502756 1.529024 0.121044 0.000000 0.000000 -6.549065 6.854592 55.464189 0.257070 0.000000 0.000000 -80.730869 5.762748 5.014299 0.224060 -0.000000 -0.000000 -4.432132 9.434919 14.417500 -0.033538 0.004091 0.144174 -2.124125 -0.150079 8.780429 -0.121044 -0.000000 -0.000000 79.352004 11.890317 -50.778936 -0.257070 -0.000000 -0.000000 63.280453 13.011309 17.295772 -0.224060 -0.000000 -0.000000 25.207146 3.672326 5.905057 0.085570 0.000000 0.000000 7.192784 -10.526329 3.605334 -0.000000 0.000000 -0.385526 16.854679 17.549215 -4.724245 0.000000 0.000000 -0.365921 12.448972 -6.260355 1.541103 -0.000000 -0.128355 -0.055620 -0.000000 -0.000002 0.000001 -0.085570 0.000000 0.000000 -23.085300 12.271475 9.622113 -0.000000 0.000000 -0.385526 7.880402 18.997785 -4.910821 0.000000 0.000000 -0.365921 -36.961801 2.275067 -7.984838 0.000000 -0.128355 -0.055620 -0.000000 0.000002 0.000001 
0.176701 0.012671 0.811105 60.890563 -4.435156 -1.672165 -0.000000 -0.000000 0.070167 18.405015 -0.007436 -2.857507 -0.000000 -0.000000 0.166666 4.902910 12.003613 11.660342 -0.000000 -0.000000 0.183780 -5.443612 8.956349 17.440236 -0.000000 -0.017114 0.132633 -6.341353 18.049314 -10.363555 0.034466 0.004091 0.144174 2.176411 6.814034 1.587827 0.121044 0.000000 0.000000 -7.572569 6.906435 56.029077 0.257070 0.000000 0.000000 -78.976009 6.905588 4.052657 0.224060 -0.000000 -0.000000 -4.723285 9.612707 14.596270 -0.033538 0.004091 0.144174 -3.133415 0.569795 8.413938 -0.121044 -0.000000 -0.000000 78.803267 9.814268 -51.534139 -0.257070 0.000000 -0.000000 62.092539 13.117812 16.625211 -0.224060 0.000000 -0.000000 25.235681 4.343501 5.442305 0.085570 -0.000000 0.000000 7.628204 -10.431626 3.710996 -0.000000 0.000000 -0.385526 15.706858 18.333469 -4.419495 0.000000 0.000000 -0.365921 13.138042 -6.568614 2.868203 0.000000 -0.128355 -0.055620 0.000000 -0.000000 -0.000000 -0.085570 -0.000000 -0.000000 -23.137662 12.202221 9.707172 0.000000 0.000000 -0.385526 8.895603 19.844216 -5.329625 -0.000000 0.000000 -0.365921 -38.312358 3.849947 -9.033294 -0.000000 -0.128355 -0.055620 0.000000 -0.000001 -0.000001 
0.183695 0.011921 0.810761 61.819687 -4.316804 -1.569287 0.000000 -0.000000 0.070167 17.912537 -0.026516 -2.633950 -0.000000 -0.000000 0.166666 4.791131 11.802020 11.360341 0.000000 -0.000000 0.183780 -5.052347 8.910115 17.112353 -0.000000 -0.017114 0.132633 -5.926199 18.074900 -10.201297 0.034466 0.004091 0.144174 2.072025 7.018836 1.384545 0.121044 0.000000 -0.000000 -8.648752 6.726863 56.869012 0.257070 -0.000000 0.000000 -76.993328 7.920750 3.355463 0.224060 0.000000 0.000000 -5.219663 9.872344 15.134898 -0.033538 0.004091 0.144174 -3.987755 0.991795 7.957174 -0.121044 0.000000 -0.000000 78.255588 8.129826 -52.481913 -0.257070 0.000000 -0.000000 61.149946 12.942029 16.135200 -0.224060 -0.000000 0.000000 25.135890 4.536765 4.965401 0.085570 -0.000000 -0.000000 7.845873 -10.437889 3.805390 -0.000000 0.000000 -0.385526 14.894214 19.135513 -4.197407 -0.000000 0.000000 -0.365921 13.055479 -7.461773 2.429814 -0.000000 -0.128355 -0.055620 -0.000000 0.000000 0.000001 -0.085570 -0.000000 -0.000000 -22.965338 12.009149 9.700240 -0.000000 0.000000 -0.385526 9.811797 20.956851 -5.776539 0.000000 0.000000 -0.365921 -39.197339 4.797737 -8.467654 0.000000 -0.128355 -0.055620 -0.000000 -0.000000 -0.000001 
0.190927 0.011282 0.810246 62.725643 -4.246635 -1.463749 -0.000000 -0.000000 0.070167 17.410361 -0.101720 -2.442187 -0.000000 -0.000000 0.166666 4.673717 11.665097 11.016297 0.000000 -0.000000 0.183780 -4.804780 9.121955 16.844964 -0.000000 -0.017114 0.132633 -5.647690 17.766207 -9.993050 0.034466 0.004091 0.144174 1.779461 7.239857 1.265392 0.121044 0.000000 -0.000000 -9.764866 6.718513 57.726601 0.257070 -0.000000 -0.000000 -75.025687 9.172996 2.394118 0.224060 0.000000 -0.000000 -5.704791 10.242651 15.016243 -0.033538 0.004091 0.144174 -4.820901 1.462115 7.503070 -0.121044 0.000000 -0.000000 77.864805 6.784662 -53.534080 -0.257070 0.000000 0.000000 60.176753 12.767554 16.086982 -0.224060 -0.000000 -0.000000 25.130199 4.543741 4.836109 0.085570 0.000000 0.000000 7.796811 -10.450229 3.884977 -0.000000 0.000000 -0.385526 14.306069 19.993111 -4.050137 0.000000 0.000000 -0.365921 12.769460 -8.277213 2.079431 -0.000000 -0.128355 -0.055620 -0.000001 0.000000 -0.000000 -0.085570 0.000000 0.000000 -22.760958 11.708569 9.708130 0.000000 0.000000 -0.385526 10.956483 22.390912 -6.315344 -0.000000 0.000000 -0.365921 -39.993572 5.678606 -8.052579 -0.000000 -0.128355 -0.055620 0.000001 -0.000000 -0.000000 
0.197573 0.010367 0.808851 63.747884 -4.297540 -1.201908 0.000000 -0.000000 0.070167 16.742464 0.118554 -2.316982 -0.000000 -0.000000 0.166666 4.539529 11.277512 10.493195 0.000000 -0.000000 0.183780 -4.568594 9.446107 16.378269 -0.000000 -0.017114 0.132633 -5.388689 17.124561 -9.340625 0.034466 0.004091 0.144174 1.948940 8.071348 1.104873 0.121044 -0.000000 0.000000 -11.391732 5.725179 58.403903 0.257070 0.000000 0.000000 -72.641603 10.022946 1.741901 0.224060 0.000000 -0.000000 -6.037259 10.550343 14.039714 -0.033538 0.004091 0.144174 -5.501146 1.864651 7.116416 -0.121044 0.000000 0.000000 76.943242 5.251462 -54.641059 -0.257070 -0.000000 0.000000 59.409839 12.545914 15.634721 -0.224060 0.000000 -0.000000 25.214036 4.646848 4.465899 0.085570 -0.000000 0.000000 7.523979 -10.587586 3.692456 -0.000000 0.000000 -0.385526 13.283045 21.258296 -3.715382 0.000000 0.000000 -0.365921 11.828508 -10.160178 -1.097931 -0.000000 -0.128355 -0.055620 0.000000 -0.000002 0.000000 -0.085570 -0.000000 -0.000000 -22.170121 11.512256 9.371454 0.000000 0.000000 -0.385526 12.032903 24.132882 -6.879868 0.000000 0.000000 -0.365921 -40.773217 6.386595 -7.553238 0.000000 -0.128355 -0.055620 -0.000002 -0.000002 0.000000 
0.205051 0.010272 0.808195 64.676858 -4.076862 -1.142954 0.000000 -0.000000 0.070167 16.080337 -0.241466 -2.062909 -0.000000 -0.000000 0.166666 4.359340 11.294707 10.096820 0.000000 -0.000000 0.183780 -4.163383 9.418769 16.019461 0.000000 -0.017114 0.132633 -4.963942 17.033413 -9.130502 0.034466 0.004091 0.144174 1.439543 7.865825 1.117307 0.121044 -0.000000 0.000000 -12.455732 6.335642 59.427290 0.257070 -0.000000 0.000000 -70.735126 11.102107 0.377845 0.224060 0.000000 0.000000 -6.567317 10.606347 13.402353 -0.033538 0.004091 0.144174 -6.075662 2.199771 6.662904 -0.121044 -0.000000 0.000000 76.043249 4.110309 -55.858756 -0.257070 -0.000000 0.000000 58.780622 12.322331 15.518343 -0.224060 -0.000000 0.000000 25.153437 4.513824 4.089869 0.085570 -0.000000 -0.000000 6.959430 -10.935240 3.858511 0.000000 0.000000 -0.385526 12.922218 22.326355 -3.613342 0.000000 0.000000 -0.365921 11.766042 -10.562602 -1.342955 -0.000000 -0.128355 -0.055620 -0.000000 -0.000003 0.000000 -0.085570 -0.000000 -0.000000 -21.195624 10.876706 9.196825 -0.000000 0.000000 -0.385526 13.451772 25.966334 -7.920055 -0.000000 0.000000 -0.365921 -41.924333 7.571922 -7.033169 0.000000 -0.128355 -0.055620 0.000001 0.000004 -0.000001 
